<?xml version="1.0" encoding="utf-8"?>
<!-- Generator: Adobe Illustrator 25.4.1, SVG Export Plug-In . SVG Version: 6.00 Build 0)  -->
<svg version="1.1" id="OBJECTS" xmlns="http://www.w3.org/2000/svg" xmlns:xlink="http://www.w3.org/1999/xlink" x="0px" y="0px"
	 viewBox="0 0 817.7 563.7" style="enable-background:new 0 0 817.7 563.7;" xml:space="preserve">
<style type="text/css">
	.st0{fill:#B7262C;}
</style>
<g>
	<g>
		<g>
			<path class="st0" d="M202.7,129.3l44-43.3l-43.3,44c-0.2,0.2-0.5,0.2-0.7,0S202.5,129.5,202.7,129.3
				C202.6,129.3,202.7,129.3,202.7,129.3z"/>
		</g>
		<g>
			<path class="st0" d="M117.3,107.5l77.8-77.1L118,108.2c-0.2,0.2-0.5,0.2-0.7,0C117.1,108,117.1,107.7,117.3,107.5L117.3,107.5z"
				/>
		</g>
		<g>
			<path class="st0" d="M478.7,145.3L624.7,0L479.4,146c-0.2,0.2-0.5,0.2-0.7,0S478.5,145.5,478.7,145.3L478.7,145.3z"/>
		</g>
		<g>
			<path class="st0" d="M457.7,107.5l12.4-11.7l-11.7,12.4c-0.2,0.2-0.5,0.2-0.7,0C457.5,108,457.4,107.7,457.7,107.5
				C457.6,107.5,457.6,107.5,457.7,107.5z"/>
		</g>
		<g>
			<path class="st0" d="M662.7,203.3L817.7,49L663.4,204c-0.2,0.2-0.5,0.2-0.7,0C662.5,203.8,662.5,203.5,662.7,203.3L662.7,203.3z"
				/>
		</g>
		<g>
			<path class="st0" d="M591.7,151.3l33.5-32.8L592.4,152c-0.2,0.2-0.5,0.2-0.7,0S591.5,151.5,591.7,151.3
				C591.6,151.3,591.7,151.3,591.7,151.3z"/>
		</g>
		<g>
			<path class="st0" d="M0.7,543.3L92,452.7L1.4,544c-0.2,0.2-0.5,0.2-0.7,0S0.5,543.5,0.7,543.3L0.7,543.3z"/>
		</g>
		<g>
			<path class="st0" d="M11.7,420.3L53,379.7L12.4,421c-0.2,0.2-0.5,0.2-0.7,0S11.5,420.5,11.7,420.3
				C11.6,420.3,11.7,420.3,11.7,420.3z"/>
		</g>
		<g>
			<path class="st0" d="M562.7,399.8l132.6-131.9L563.4,400.5c-0.2,0.2-0.5,0.2-0.7,0C562.5,400.3,562.5,400,562.7,399.8
				L562.7,399.8z"/>
		</g>
		<g>
			<path class="st0" d="M634.7,428.3l20.9-20.1L635.4,429c-0.2,0.2-0.5,0.2-0.7,0S634.4,428.5,634.7,428.3
				C634.6,428.3,634.6,428.3,634.7,428.3z"/>
		</g>
		<g>
			<path class="st0" d="M687.9,339.3l35.7-35l-35,35.7c-0.2,0.2-0.5,0.2-0.7,0S687.7,339.5,687.9,339.3
				C687.9,339.3,687.9,339.3,687.9,339.3z"/>
		</g>
		<g>
			<path class="st0" d="M360.7,555.3l67.7-67l-67,67.7c-0.2,0.2-0.5,0.2-0.7,0C360.5,555.8,360.5,555.5,360.7,555.3L360.7,555.3z"/>
		</g>
		<g>
			<path class="st0" d="M463.7,407.3l95.5-94.8L464.4,408c-0.2,0.2-0.5,0.2-0.7,0C463.5,407.8,463.5,407.5,463.7,407.3L463.7,407.3z
				"/>
		</g>
		<g>
			<path class="st0" d="M140.7,223.3l48-47.3l-47.3,48c-0.2,0.2-0.5,0.2-0.7,0S140.5,223.5,140.7,223.3
				C140.6,223.3,140.7,223.3,140.7,223.3z"/>
		</g>
		<g>
			<path class="st0" d="M259.7,562.3l52.4-51.7L260.4,563c-0.2,0.2-0.5,0.2-0.7,0C259.5,562.8,259.5,562.5,259.7,562.3
				C259.6,562.3,259.7,562.3,259.7,562.3z"/>
		</g>
	</g>
</g>
</svg>
