<?xml version="1.0" encoding="utf-8"?>
<!-- Generator: Adobe Illustrator 24.0.0, SVG Export Plug-In . SVG Version: 6.00 Build 0)  -->
<svg version="1.1" id="Layer_1" xmlns="http://www.w3.org/2000/svg" xmlns:xlink="http://www.w3.org/1999/xlink" x="0px" y="0px"
	 viewBox="0 0 463.2 114" style="enable-background:new 0 0 463.2 114;" xml:space="preserve">
<style type="text/css">
	.st0{fill:#FFFFFF;}
	.st1{fill:#C1272D;}
</style>
<g>
	<g>
		<path class="st0" d="M231.9,86.9H145L231.9,0V86.9z M189.9,68.3h23.4V44.9L189.9,68.3z"/>
	</g>
	<g>
		<g>
			<path class="st0" d="M16.6,87.3h-5.5V37.3H0v-5.5h27.7v5.5H16.6C16.6,37.3,16.6,87.3,16.6,87.3z"/>
			<path class="st0" d="M46.6,87.3h-5.5V31.8h5.5v24.9H73V31.8h5.5v55.6H73V62H46.6C46.6,62,46.6,87.3,46.6,87.3z"/>
			<path class="st0" d="M102.2,56.7h23.4v5.5h-23.4V82h23.4v5.4H96.7V31.8h28.9v5.5h-23.4V56.7z"/>
		</g>
	</g>
	<g>
		<path class="st0" d="M280.4,84.3h-25V28.8h5.5v50.2h19.5V84.3z"/>
		<path class="st0" d="M289.7,56.2c0-3.9,0.7-7.6,2.2-11.1c1.5-3.5,3.6-6.6,6.5-9.4c2.7-2.7,5.7-4.7,9-6s6.8-2,10.6-2
			c3.9,0,7.5,0.7,10.8,2s6.4,3.4,9.1,6.1c2.8,2.8,5,5.9,6.4,9.3c1.4,3.4,2.1,7.1,2.1,11.1c0,3.9-0.6,7.6-1.8,10.9s-3,6.3-5.5,9
			c-2.8,3.1-6,5.4-9.6,7s-7.4,2.4-11.6,2.4c-8,0-14.7-2.8-20.1-8.4C292.4,71.4,289.7,64.5,289.7,56.2z M295.5,56.3
			c0,6.8,2.2,12.4,6.6,17s9.8,6.9,16.3,6.9c6.3,0,11.6-2.3,16-6.9c4.4-4.6,6.5-10.3,6.5-17.1c0-6.3-2.2-11.8-6.7-16.3
			c-4.5-4.6-9.9-6.9-16.2-6.9c-2.6,0-5,0.4-7.4,1.3s-4.6,2.2-6.6,3.9c-2.6,2.2-4.7,5-6.2,8.2C296.2,49.6,295.5,52.9,295.5,56.3z"/>
		<path class="st0" d="M359.1,56.2c0-3.9,0.7-7.6,2.2-11.1c1.5-3.5,3.6-6.6,6.5-9.4c2.7-2.7,5.7-4.7,9-6s6.8-2,10.6-2
			c3.9,0,7.5,0.7,10.8,2s6.4,3.4,9.1,6.1c2.8,2.8,5,5.9,6.4,9.3c1.4,3.4,2.1,7.1,2.1,11.1c0,3.9-0.6,7.6-1.8,10.9s-3,6.3-5.5,9
			c-2.8,3.1-6,5.4-9.6,7s-7.4,2.4-11.6,2.4c-8,0-14.7-2.8-20.1-8.4C361.8,71.4,359.1,64.5,359.1,56.2z M364.8,56.3
			c0,6.8,2.2,12.4,6.6,17s9.8,6.9,16.3,6.9c6.3,0,11.6-2.3,16-6.9c4.4-4.6,6.5-10.3,6.5-17.1c0-6.3-2.2-11.8-6.7-16.3
			c-4.5-4.6-9.9-6.9-16.2-6.9c-2.6,0-5,0.4-7.4,1.3s-4.6,2.2-6.6,3.9c-2.6,2.2-4.7,5-6.2,8.2C365.5,49.6,364.8,52.9,364.8,56.3z"/>
		<path class="st0" d="M430.6,28.8h11.8c3.4,0,6.1,0.2,8.1,0.5c2,0.4,3.7,0.9,5.1,1.7c2.4,1.5,4.3,3.4,5.6,5.7s2,5,2,7.9
			c0,2.8-0.6,5.4-1.8,7.8s-2.8,4.3-4.9,5.7c-1.5,1-3.2,1.7-5.3,2.2c-2,0.4-4.7,0.7-7.8,0.7h-7.3v23.4h-5.5V28.8z M436,34.2v21.2h8.1
			c4.5,0,7.8-0.9,9.9-2.6c2.1-1.7,3.2-4.3,3.2-7.9c0-3.7-1.1-6.4-3.2-8.1c-2.2-1.7-5.6-2.6-10.4-2.6L436,34.2L436,34.2z"/>
	</g>
	<polygon class="st1" points="208.4,114 231.9,114 231.9,90.5 	"/>
</g>
</svg>
